<?xml version="1.0" standalone="no"?>
<!DOCTYPE svg PUBLIC "-//W3C//DTD SVG 20010904//EN"
 "http://www.w3.org/TR/2001/REC-SVG-20010904/DTD/svg10.dtd">
<svg version="1.0" xmlns="http://www.w3.org/2000/svg"
 width="160.000000pt" height="160.000000pt" viewBox="0 0 160.000000 160.000000"
 preserveAspectRatio="xMidYMid meet">
<metadata>
Created by potrace 1.13, written by Peter Selinger 2001-2015
</metadata>
<g transform="translate(0.000000,160.000000) scale(0.160000,-0.160000)"
fill="#000000" stroke="none">
<path d="M161 833 c0 -27 13 -181 27 -343 l27 -294 130 -38 c72 -21 141 -37
155 -37 14 0 84 16 155 37 l130 38 27 294 c14 162 27 316 27 343 l1 47 -340 0
-340 0 1 -47z m515 -140 c-3 -16 -8 -86 -11 -158 -9 -212 -4 -198 -91 -225
l-74 -24 -74 24 c-67 21 -75 26 -80 53 -13 66 -9 77 29 77 32 0 35 -3 35 -29
0 -25 5 -30 45 -41 36 -10 54 -10 90 0 l45 13 0 48 0 49 -85 0 c-47 0 -85 4
-85 9 0 5 -3 23 -6 40 l-6 31 96 0 96 0 0 40 0 40 -134 0 c-130 0 -134 1 -140
23 -16 59 -22 57 175 57 l181 0 -6 -27z"/>
</g>
</svg>
