<?xml version="1.0" standalone="no"?>
<!DOCTYPE svg PUBLIC "-//W3C//DTD SVG 20010904//EN"
 "http://www.w3.org/TR/2001/REC-SVG-20010904/DTD/svg10.dtd">
<svg version="1.0" xmlns="http://www.w3.org/2000/svg"
 width="160.000000pt" height="160.000000pt" viewBox="0 0 160.000000 160.000000"
 preserveAspectRatio="xMidYMid meet">
<metadata>
Created by potrace 1.13, written by Peter Selinger 2001-2015
</metadata>
<g transform="translate(0.000000,160.000000) scale(0.160000,-0.160000)"
fill="#000000" stroke="none">
<path d="M87 953 c-2 -5 12 -189 32 -411 29 -321 39 -405 51 -412 26 -14 305
-90 330 -90 25 0 304 76 330 90 12 7 22 91 51 412 20 222 34 406 32 411 -2 4
-188 7 -413 7 -225 0 -411 -3 -413 -7z m653 -200 c0 -10 -3 -28 -6 -40 -6 -23
-8 -23 -190 -23 l-184 0 0 -55 0 -55 180 0 c165 0 180 -1 180 -17 0 -10 -5
-77 -12 -149 l-11 -131 -88 -27 c-48 -14 -96 -26 -105 -26 -10 0 -60 12 -111
27 l-93 27 0 42 c0 23 -3 49 -6 58 -5 13 2 16 40 16 42 0 46 -2 46 -24 0 -21
7 -26 54 -37 52 -11 148 -6 172 9 6 4 13 37 16 74 l6 68 -172 2 -171 3 -7 75
c-3 41 -9 103 -12 138 l-7 62 241 0 c222 0 240 -1 240 -17z"/>
</g>
</svg>
