<?xml version="1.0" standalone="no"?>
<!DOCTYPE svg PUBLIC "-//W3C//DTD SVG 20010904//EN"
 "http://www.w3.org/TR/2001/REC-SVG-20010904/DTD/svg10.dtd">
<svg version="1.0" xmlns="http://www.w3.org/2000/svg"
 width="90.000000pt" height="90.000000pt" viewBox="0 0 90.000000 90.000000"
 preserveAspectRatio="xMidYMid meet">

<g transform="translate(0.000000,90.000000) scale(0.100000,-0.100000)"
fill="#000000" stroke="none">
<path d="M140 760 c-19 -19 -20 -33 -20 -310 0 -277 1 -291 20 -310 19 -19 33
-20 310 -20 277 0 291 1 310 20 19 19 20 33 20 310 0 277 -1 291 -20 310 -19
19 -33 20 -310 20 -277 0 -291 -1 -310 -20z m195 -205 c0 -5 -12 -11 -27 -13
-37 -4 -36 -30 2 -67 21 -20 30 -38 30 -62 0 -37 -21 -53 -69 -53 -43 0 -42
28 1 32 45 4 46 27 3 71 -39 40 -42 53 -19 85 12 17 24 22 47 20 18 -2 32 -7
32 -13z m155 0 c28 -33 30 -118 5 -177 -5 -13 -2 -18 9 -18 9 0 16 -7 16 -15
0 -20 -8 -19 -64 5 -55 25 -66 43 -66 110 0 51 12 88 34 102 18 13 53 9 66 -7z
m110 -75 l0 -90 30 0 c20 0 30 -5 30 -15 0 -11 -12 -15 -45 -15 l-45 0 0 105
c0 87 3 105 15 105 12 0 15 -17 15 -90z"/>
<path d="M430 514 c-20 -52 -6 -124 24 -124 18 0 26 22 26 75 0 24 -3 50 -6
59 -9 24 -33 19 -44 -10z"/>
</g>
</svg>
