<?xml version="1.0" standalone="no"?>
<!DOCTYPE svg PUBLIC "-//W3C//DTD SVG 20010904//EN"
 "http://www.w3.org/TR/2001/REC-SVG-20010904/DTD/svg10.dtd">
<svg version="1.0" xmlns="http://www.w3.org/2000/svg"
 width="160.000000pt" height="160.000000pt" viewBox="0 0 160.000000 160.000000"
 preserveAspectRatio="xMidYMid meet">
<metadata>
Created by potrace 1.13, written by Peter Selinger 2001-2015
</metadata>
<g transform="translate(0.000000,160.000000) scale(0.160000,-0.160000)"
fill="#000000" stroke="none">
<path d="M85 908 c-3 -7 -4 -195 -3 -418 l3 -405 415 0 415 0 0 415 0 415
-413 3 c-325 2 -414 0 -417 -10z m285 -383 l0 -195 65 0 c63 0 65 -1 65 -25 0
-25 -1 -25 -90 -25 l-90 0 0 220 0 220 25 0 25 0 0 -195z m240 48 c1 -26 1
-27 12 -8 22 39 58 48 58 15 0 -13 -7 -20 -19 -20 -40 0 -51 -36 -51 -162 l0
-118 -25 0 -25 0 0 160 0 160 25 0 c21 0 25 -5 25 -27z"/>
</g>
</svg>
