<?xml version="1.0" standalone="no"?>
<!DOCTYPE svg PUBLIC "-//W3C//DTD SVG 20010904//EN"
 "http://www.w3.org/TR/2001/REC-SVG-20010904/DTD/svg10.dtd">
<svg version="1.0" xmlns="http://www.w3.org/2000/svg"
 width="160.000000pt" height="160.000000pt" viewBox="0 0 160.000000 160.000000"
 preserveAspectRatio="xMidYMid meet">
<metadata>
Created by potrace 1.13, written by Peter Selinger 2001-2015
</metadata>
<g transform="translate(0.000000,160.000000) scale(0.160000,-0.160000)"
fill="#000000" stroke="none">
<path d="M696 939 c18 -20 19 -42 19 -439 0 -397 -1 -419 -19 -439 -19 -21
-19 -21 10 -21 16 1 79 26 139 58 l110 57 0 345 0 345 -110 57 c-60 32 -123
58 -139 58 -29 0 -29 0 -10 -21z"/>
<path d="M521 784 c-67 -75 -121 -139 -120 -143 0 -7 134 -114 149 -119 6 -2
37 18 70 45 l60 48 0 153 c0 143 -1 152 -19 152 -12 0 -65 -52 -140 -136z"/>
<path d="M88 755 l-48 -25 38 -38 c20 -21 156 -167 301 -325 166 -181 270
-287 282 -287 18 0 19 10 19 148 l0 147 -245 200 c-172 141 -252 201 -272 202
-15 2 -49 -9 -75 -22z"/>
<path d="M40 490 c0 -104 3 -190 8 -190 4 0 31 27 60 59 l52 60 0 76 0 76 -51
55 c-29 30 -56 54 -60 54 -5 0 -9 -85 -9 -190z"/>
<path d="M154 372 c-49 -56 -95 -102 -101 -102 -7 0 -13 -4 -13 -10 0 -14 95
-60 122 -60 14 0 58 30 111 75 l87 74 -58 62 -58 62 -90 -101z"/>
</g>
</svg>
