<?xml version="1.0" standalone="no"?>
<!DOCTYPE svg PUBLIC "-//W3C//DTD SVG 20010904//EN"
 "http://www.w3.org/TR/2001/REC-SVG-20010904/DTD/svg10.dtd">
<svg version="1.0" xmlns="http://www.w3.org/2000/svg"
 width="240.000000pt" height="240.000000pt" viewBox="0 0 240.000000 240.000000"
 preserveAspectRatio="xMidYMid meet">
<metadata>
Created by potrace 1.13, written by Peter Selinger 2001-2015
</metadata>
<g transform="translate(0.000000,240.000000) scale(0.160000,-0.160000)"
fill="#000000" stroke="none">
<path d="M900 1226 c0 -19 5 -38 10 -41 6 -4 27 -41 48 -84 31 -63 37 -83 30
-107 -13 -43 0 -111 26 -141 20 -24 26 -25 40 -14 9 7 16 19 16 27 0 7 20 -8
44 -34 25 -26 47 -44 50 -41 3 3 -10 26 -28 52 -19 26 -39 61 -46 77 -7 17
-16 30 -21 30 -12 0 -29 -35 -29 -60 0 -12 -4 -19 -10 -15 -17 11 -23 75 -10
120 11 40 10 46 -9 71 -11 15 -21 32 -21 38 0 7 -15 38 -34 69 -38 63 -32 71
31 37 21 -11 47 -20 58 -20 30 0 106 -51 143 -95 17 -21 50 -77 72 -124 40
-84 43 -87 103 -115 67 -32 68 -28 -8 -56 -19 -6 -17 -9 16 -41 43 -40 108
-81 122 -76 5 1 -14 24 -42 50 l-52 46 28 6 c60 14 60 15 13 57 -25 22 -60 47
-78 55 -28 12 -40 28 -73 98 -21 47 -56 103 -76 126 -45 50 -118 99 -148 99
-11 0 -37 9 -58 20 -20 11 -53 20 -72 20 -33 0 -35 -2 -35 -34z"/>
<path d="M1023 1163 c-10 -3 -10 -9 0 -24 15 -24 27 -24 27 0 0 22 -9 30 -27
24z"/>
<path d="M7 774 c-4 -4 -7 -65 -7 -136 l0 -128 30 0 30 0 1 98 0 97 47 -95 47
-95 40 0 40 0 47 95 47 95 1 -97 0 -98 30 0 31 0 -3 133 -3 132 -50 0 -49 0
-47 -102 -46 -102 -44 102 -44 102 -45 3 c-25 2 -49 0 -53 -4z"/>
<path d="M708 766 c-13 -10 -18 -27 -18 -64 0 -62 14 -72 102 -77 58 -3 77
-13 78 -42 0 -30 -32 -43 -106 -43 -59 0 -74 -3 -74 -15 0 -12 18 -15 98 -15
123 0 142 10 142 79 0 26 -5 52 -12 59 -7 7 -39 12 -74 12 -63 0 -94 15 -94
45 0 32 30 45 106 45 59 0 74 3 74 15 0 12 -18 15 -102 15 -70 -1 -109 -5
-120 -14z"/>
<path d="M969 764 c-16 -19 -25 -145 -15 -199 9 -46 33 -57 116 -56 49 1 71
-3 80 -14 8 -9 30 -15 57 -15 40 0 44 2 33 15 -10 12 -13 51 -11 140 3 150 7
145 -142 145 -85 0 -107 -3 -118 -16z m173 -26 c13 -10 18 -33 20 -91 l3 -77
-44 0 c-39 0 -42 -2 -30 -17 13 -15 11 -16 -21 -10 -18 4 -38 13 -42 20 -10
15 -10 148 0 163 16 25 88 32 114 12z"/>
<path d="M1260 655 c0 -150 -5 -145 139 -145 80 0 101 3 101 14 0 10 -20 15
-80 18 -58 2 -84 7 -90 18 -5 8 -10 61 -10 118 l0 102 -30 0 -30 0 0 -125z"/>
<path d="M420 610 c0 -95 5 -100 104 -100 36 0 66 -4 66 -9 0 -15 -29 -21
-101 -21 -55 0 -69 -3 -69 -15 0 -12 18 -15 101 -15 142 0 139 -3 139 130 l0
110 -30 0 -30 0 0 -75 0 -75 -44 0 c-62 0 -76 17 -76 91 0 59 0 59 -30 59
l-30 0 0 -80z"/>
</g>
</svg>
