<?xml version="1.0" standalone="no"?>
<!DOCTYPE svg PUBLIC "-//W3C//DTD SVG 20010904//EN"
 "http://www.w3.org/TR/2001/REC-SVG-20010904/DTD/svg10.dtd">
<svg version="1.0" xmlns="http://www.w3.org/2000/svg"
 width="160.000000pt" height="160.000000pt" viewBox="0 0 160.000000 160.000000"
 preserveAspectRatio="xMidYMid meet">
<metadata>
Created by potrace 1.13, written by Peter Selinger 2001-2015
</metadata>
<g transform="translate(0.000000,160.000000) scale(0.160000,-0.160000)"
fill="#000000" stroke="none">
<path d="M265 924 c-38 -8 -90 -25 -115 -37 -58 -30 -59 -39 -21 -281 35 -220
37 -225 146 -259 60 -19 93 -22 225 -22 132 0 165 3 225 22 109 34 111 39 146
259 38 242 37 251 -21 280 -25 13 -80 30 -122 39 -100 20 -365 19 -463 -1z
m398 -65 c37 -6 77 -19 90 -29 20 -17 21 -20 6 -35 -59 -60 -457 -61 -517 -2
-60 61 197 101 421 66z m-104 -243 c68 -36 68 -156 0 -192 -82 -42 -170 9
-169 98 1 87 89 135 169 94z"/>
<path d="M452 568 c-7 -7 -12 -28 -12 -48 0 -45 15 -60 60 -60 45 0 60 15 60
60 0 45 -15 60 -60 60 -20 0 -41 -5 -48 -12z"/>
<path d="M210 327 c0 -6 7 -55 15 -107 16 -104 26 -120 93 -141 66 -21 257
-23 326 -5 97 27 104 35 120 151 8 55 13 101 12 103 -2 1 -38 -7 -82 -18 -133
-35 -338 -26 -456 19 -21 8 -28 7 -28 -2z"/>
</g>
</svg>
