<?xml version="1.0" standalone="no"?>
<!DOCTYPE svg PUBLIC "-//W3C//DTD SVG 20010904//EN"
 "http://www.w3.org/TR/2001/REC-SVG-20010904/DTD/svg10.dtd">
<svg version="1.0" xmlns="http://www.w3.org/2000/svg"
 width="160.000000pt" height="160.000000pt" viewBox="0 0 160.000000 160.000000"
 preserveAspectRatio="xMidYMid meet">
<metadata>
Created by potrace 1.13, written by Peter Selinger 2001-2015
</metadata>
<g transform="translate(0.000000,160.000000) scale(0.160000,-0.160000)"
fill="#000000" stroke="none">
<path d="M786 858 c-9 -12 -16 -27 -16 -33 0 -27 -77 -99 -134 -126 -52 -25
-68 -28 -114 -22 -33 4 -68 1 -92 -7 -31 -10 -45 -10 -69 0 -30 12 -89 70
-123 120 -17 24 -17 23 -18 -70 0 -52 -5 -102 -10 -110 -7 -11 -24 -14 -68
-12 -54 3 -61 1 -81 -24 -29 -37 -28 -107 2 -157 32 -53 72 -77 129 -77 38 0
50 5 67 26 12 15 21 37 21 50 0 15 6 24 15 24 10 0 15 -10 15 -32 0 -23 -10
-40 -39 -68 l-39 -38 66 -30 c37 -17 87 -36 111 -42 63 -16 191 -15 234 3 34
15 39 14 109 -13 40 -16 81 -29 91 -30 9 0 17 -6 17 -13 0 -27 90 -87 130 -87
6 0 10 28 10 69 0 77 -23 121 -65 121 -13 0 -46 16 -75 35 -29 19 -56 35 -60
35 -5 0 1 18 12 41 10 22 26 74 34 116 16 86 19 325 4 354 -14 26 -45 24 -64
-3z m-239 -250 c31 -29 29 -35 -9 -31 -18 2 -27 0 -20 -3 20 -10 15 -44 -8
-44 -15 0 -20 7 -20 26 0 23 -2 25 -16 13 -11 -9 -15 -26 -12 -56 2 -24 1 -43
-1 -43 -3 0 -15 10 -28 22 -30 28 -31 83 -1 115 28 30 83 31 115 1z m-197 -13
c10 -13 9 -15 -11 -16 -13 0 -18 -3 -11 -6 19 -7 15 -35 -5 -31 -11 2 -17 11
-15 23 3 17 2 17 -13 5 -12 -10 -15 -25 -13 -48 l4 -35 -18 23 c-22 28 -23 58
-1 82 20 22 66 24 83 3z m-205 -85 c0 -31 -3 -35 -25 -35 -19 0 -26 6 -28 23
-5 36 5 54 30 50 19 -2 23 -9 23 -38z m525 -135 c0 -19 16 -31 95 -69 52 -26
95 -51 95 -57 0 -17 -45 -3 -135 42 -67 32 -92 39 -145 40 -104 2 -129 14 -45
24 83 9 105 19 105 47 0 17 2 18 15 8 8 -7 15 -23 15 -35z"/>
</g>
</svg>
