<?xml version="1.0" standalone="no"?>
<!DOCTYPE svg PUBLIC "-//W3C//DTD SVG 20010904//EN"
 "http://www.w3.org/TR/2001/REC-SVG-20010904/DTD/svg10.dtd">
<svg version="1.0" xmlns="http://www.w3.org/2000/svg"
 width="153.600000pt" height="153.600000pt" viewBox="0 0 153.600000 153.600000"
 preserveAspectRatio="xMidYMid meet">
<metadata>
Created by potrace 1.13, written by Peter Selinger 2001-2015
</metadata>
<g transform="translate(0.000000,153.600000) scale(0.160000,-0.160000)"
fill="#000000" stroke="none">
<path d="M365 867 c-113 -38 -202 -114 -252 -214 -26 -53 -28 -67 -28 -168 0
-99 3 -116 27 -168 15 -32 41 -76 58 -97 34 -43 122 -105 163 -115 27 -7 27
-6 27 44 0 41 -3 49 -15 45 -32 -12 -75 17 -99 67 -27 57 -19 63 18 14 23 -30
33 -35 67 -35 31 0 39 4 39 18 0 10 7 27 15 38 21 27 19 29 -22 43 -100 31
-144 135 -93 219 14 23 20 50 20 92 0 70 9 74 75 37 31 -17 49 -21 78 -16 21
3 57 3 79 -1 34 -7 46 -4 76 16 58 40 72 34 72 -31 0 -36 7 -70 20 -95 11 -22
20 -59 20 -85 0 -38 -6 -51 -36 -85 -21 -23 -52 -45 -75 -52 -21 -6 -39 -13
-39 -15 0 -2 7 -18 16 -35 9 -17 19 -66 21 -110 5 -69 8 -78 25 -78 59 0 182
113 226 208 24 51 27 68 27 172 0 107 -2 119 -29 175 -38 77 -115 153 -191
190 -51 24 -75 29 -155 32 -60 2 -110 -2 -135 -10z"/>
</g>
</svg>
