<?xml version="1.0" encoding="utf-8"?>
<!DOCTYPE svg PUBLIC "-//W3C//DTD SVG 20010904//EN" "http://www.w3.org/TR/2001/REC-SVG-20010904/DTD/svg10.dtd">
<svg version="1.0" xmlns="http://www.w3.org/2000/svg" width="100px" height="100px" viewBox="0 0 100 100" preserveAspectRatio="xMidYMid meet">
 <g fill="#000000">
  <path d="M36.3 97.6 c-17.3 -4.4 -30.8 -18.2 -34.4 -35.4 -1.7 -8.2 -0.6 -24.3 2.1 -31.5 4.4 -11.6 15.1 -22.3 26.8 -26.8 7.1 -2.7 23 -3.7 31.4 -2 17.5 3.7 32.2 18.4 35.9 35.9 1.7 8.2 0.6 24.3 -2.1 31.4 -4.4 11.6 -15.1 22.4 -26.7 26.9 -7.2 2.7 -25 3.6 -33 1.5z m17.2 -27.6 c1.5 -0.6 0.7 -0.9 -3 -0.9 -3.6 -0.1 -4.6 0.2 -3.5 0.9 1.8 1.2 3.8 1.2 6.5 0z m-1 -40 c-0.8 -1.3 -3.5 -1.3 -5.5 0 -1.1 0.7 -0.5 1 2.3 1 2.3 0 3.6 -0.4 3.2 -1z"/>
 </g>
 <g fill="#ffffff">
  <path d="M0 50 l0 -50 50 0 50 0 0 50 0 50 -50 0 -50 0 0 -50z m61.5 44.5 c17.9 -4.7 31.2 -19.6 33.8 -38 4.7 -32.4 -25.2 -59.2 -56.8 -51 -22.9 6 -37.7 28.9 -33.8 52.2 4.5 26.2 31.1 43.5 56.8 36.8z"/>
  <path d="M63.6 78.4 c-0.9 -0.8 -1.6 -2.3 -1.6 -3.3 0 -2.2 3 -5.1 5.3 -5.1 2.1 0 4.7 2.7 4.7 5 0 1 -0.7 2.6 -1.6 3.4 -0.8 0.9 -2.4 1.6 -3.4 1.6 -1 0 -2.6 -0.7 -3.4 -1.6z"/>
  <path d="M42.7 72.9 c-1.5 -0.6 -2.7 -1.4 -2.5 -1.7 0.2 -0.4 0.9 -1.8 1.6 -3.2 1.2 -2.3 1.9 -2.5 7.6 -2.5 5.3 0 6.8 -0.4 9.8 -2.7 2 -1.6 4.4 -4.6 5.4 -6.8 1.6 -3.7 2.1 -4 5.6 -4 4.2 0 4.3 0.2 2.6 5.1 -1.7 5.1 -4.7 8.9 -7 8.9 -1.1 0 -3.6 1.7 -5.5 3.7 -3.2 3.3 -4.1 3.7 -9.2 4 -3.1 0.1 -6.9 -0.2 -8.4 -0.8z"/>
  <path d="M32 65.4 c-4.4 -5.1 -5.4 -8 -3.5 -10.7 0.8 -1.2 1.5 -3.3 1.5 -4.7 0 -1.4 -0.7 -3.5 -1.5 -4.7 -1.1 -1.6 -1.3 -2.8 -0.6 -4.6 1.1 -2.8 6.9 -9.7 8.2 -9.7 0.5 0 1.6 1.4 2.4 3 1.5 3 1.5 3.2 -0.9 6.1 -2.9 3.4 -4.1 8.4 -3.2 13.4 0.4 1.9 1.8 4.8 3.2 6.4 2.4 2.9 2.4 3.1 0.9 6.1 -0.8 1.6 -1.9 3 -2.4 3 -0.5 0 -2.3 -1.6 -4.1 -3.6z"/>
  <path d="M17.6 53.4 c-2.1 -2.1 -2 -4.7 0.2 -6.7 2.3 -2.1 4.6 -2.2 6.6 -0.1 3.1 3 0.9 8.4 -3.4 8.4 -1 0 -2.6 -0.7 -3.4 -1.6z"/>
  <path d="M65.5 45.8 c-2.3 -7.6 -9.8 -12.4 -17.6 -11.5 -4.3 0.5 -4.7 0.4 -6 -2.1 -0.7 -1.5 -1.5 -3 -1.7 -3.3 -0.5 -1.1 5.8 -2.9 10.1 -2.9 3.4 0 4.6 0.6 7.7 4 2.8 3 4.5 4 6.8 4 3.4 0 6 2.9 8 8.9 1.7 4.9 1.6 5.1 -2.7 5.1 -3.2 0 -4.1 -0.4 -4.6 -2.2z"/>
  <path d="M61.6 28.4 c-0.9 -0.8 -1.6 -2.3 -1.6 -3.3 0 -2.2 3 -5.1 5.3 -5.1 2.1 0 4.7 2.7 4.7 5 0 4.3 -5.4 6.5 -8.4 3.4z"/>
 </g>
</svg>