<?xml version="1.0" standalone="no"?>
<!DOCTYPE svg PUBLIC "-//W3C//DTD SVG 20010904//EN"
 "http://www.w3.org/TR/2001/REC-SVG-20010904/DTD/svg10.dtd">
<svg version="1.0" xmlns="http://www.w3.org/2000/svg"
 width="144.000000pt" height="144.000000pt" viewBox="0 0 144.000000 144.000000"
 preserveAspectRatio="xMidYMid meet">
<metadata>
Created by potrace 1.13, written by Peter Selinger 2001-2015
</metadata>
<g transform="translate(0.000000,144.000000) scale(0.160000,-0.160000)"
fill="#000000" stroke="none">
<path d="M310 788 c-77 -30 -169 -123 -198 -201 -30 -79 -30 -195 0 -274 29
-80 121 -172 201 -201 79 -30 195 -30 274 0 80 29 172 121 201 201 30 79 30
195 0 274 -29 80 -121 172 -201 201 -78 30 -200 29 -277 0z m356 -140 c31 -35
54 -75 54 -95 0 -9 -26 -92 -57 -184 -45 -131 -62 -171 -80 -180 -13 -7 -26
-10 -29 -6 -3 3 -23 54 -45 113 -22 58 -43 113 -48 121 -5 10 -20 -20 -46 -94
-21 -59 -41 -118 -46 -130 -7 -18 -13 -21 -30 -15 -18 7 -36 47 -91 197 -60
163 -68 192 -57 211 6 12 21 25 33 28 34 9 76 7 76 -4 0 -5 -9 -10 -20 -10
-11 0 -20 -6 -20 -14 0 -18 100 -308 110 -319 4 -5 23 38 42 95 l35 103 -25
68 c-18 50 -30 67 -43 67 -11 0 -19 4 -19 9 0 5 38 9 85 9 47 0 85 -4 85 -9 0
-5 -9 -9 -20 -9 -11 0 -20 -3 -20 -7 0 -15 103 -318 110 -327 11 -12 60 153
60 203 0 25 -10 62 -25 91 -28 55 -31 80 -13 98 17 17 22 15 44 -10z"/>
</g>
</svg>
