<?xml version="1.0" standalone="no"?>
<!DOCTYPE svg PUBLIC "-//W3C//DTD SVG 20010904//EN"
 "http://www.w3.org/TR/2001/REC-SVG-20010904/DTD/svg10.dtd">
<svg version="1.0" xmlns="http://www.w3.org/2000/svg"
 width="100.000000pt" height="100.000000pt" viewBox="0 0 100.000000 100.000000"
 preserveAspectRatio="xMidYMid meet">

<g transform="translate(0.000000,100.000000) scale(0.100000,-0.100000)"
fill="#000000" stroke="none">
<path d="M386 944 c-171 -41 -308 -192 -338 -371 -51 -303 217 -573 521 -526
98 15 171 52 245 123 340 326 31 885 -428 774z m314 -140 c42 -17 70 -55 70
-94 0 -28 -33 -90 -62 -117 -61 -57 -204 -84 -256 -47 -34 24 -26 33 16 19 98
-34 252 56 252 147 0 24 -6 32 -37 45 -68 28 -168 2 -283 -73 -73 -47 -100
-85 -100 -137 0 -31 8 -42 63 -91 61 -53 66 -55 119 -55 69 1 112 -20 127 -62
9 -26 8 -37 -4 -56 -9 -12 -21 -23 -27 -23 -6 0 -3 9 7 20 15 17 16 24 7 46
-14 29 -72 57 -111 52 -24 -3 -26 -7 -27 -48 -1 -82 -46 -137 -122 -147 -46
-6 -72 14 -72 58 0 35 55 100 100 119 38 16 38 23 -2 51 -58 39 -117 102 -123
130 -19 83 99 197 265 256 77 27 144 29 200 7z"/>
<path d="M350 311 c-30 -28 -41 -46 -38 -63 2 -18 8 -22 28 -20 35 4 70 42 77
85 8 50 -13 49 -67 -2z"/>
</g>
</svg>
