<?xml version="1.0" standalone="no"?>
<!DOCTYPE svg PUBLIC "-//W3C//DTD SVG 20010904//EN"
 "http://www.w3.org/TR/2001/REC-SVG-20010904/DTD/svg10.dtd">
<svg version="1.0" xmlns="http://www.w3.org/2000/svg"
 width="160.000000pt" height="160.000000pt" viewBox="0 0 160.000000 160.000000"
 preserveAspectRatio="xMidYMid meet">
<metadata>
Created by potrace 1.13, written by Peter Selinger 2001-2015
</metadata>
<g transform="translate(0.000000,160.000000) scale(0.160000,-0.160000)"
fill="#000000" stroke="none">
<path d="M92 908 c-17 -17 -17 -799 0 -816 17 -17 799 -17 816 0 17 17 17 799
0 816 -17 17 -799 17 -816 0z m446 -515 c-5 -159 -14 -193 -55 -212 -53 -24
-140 -4 -163 38 -8 15 -5 22 14 35 22 14 26 14 37 0 8 -10 25 -14 48 -12 l36
3 3 148 3 147 40 0 41 0 -4 -147z m247 115 l27 -21 -22 -17 c-21 -16 -25 -16
-51 -1 -35 20 -62 7 -67 -31 -3 -22 5 -29 53 -52 81 -38 105 -65 105 -120 0
-62 -40 -96 -111 -96 -86 0 -153 52 -107 84 19 14 23 13 50 -9 16 -14 36 -25
44 -25 31 0 54 21 54 48 0 23 -9 32 -66 61 -52 27 -70 42 -81 69 -17 42 -11
75 22 108 33 33 110 34 150 2z"/>
</g>
</svg>
