<?xml version="1.0" standalone="no"?>
<!DOCTYPE svg PUBLIC "-//W3C//DTD SVG 20010904//EN"
 "http://www.w3.org/TR/2001/REC-SVG-20010904/DTD/svg10.dtd">
<svg version="1.0" xmlns="http://www.w3.org/2000/svg"
 width="512.000000pt" height="512.000000pt" viewBox="0 0 512.000000 512.000000"
 preserveAspectRatio="xMidYMid meet">

<g transform="translate(0.000000,512.000000) scale(0.100000,-0.100000)"
fill="#000000" stroke="none">
<path d="M1550 4351 l-1045 -647 0 -1154 0 -1153 275 -163 275 -163 3 1157 3
1157 770 477 769 477 770 -477 769 -477 3 -1157 3 -1157 275 163 275 162 0
1154 0 1154 -1045 647 c-575 356 -1047 648 -1050 648 -3 0 -475 -292 -1050
-648z"/>
<path d="M1943 3297 l-313 -190 0 -1201 0 -1201 485 -303 485 -302 485 302
485 303 0 1201 0 1201 -312 190 -313 189 -5 -1335 -5 -1335 -167 -99 -168 -99
-165 97 -165 97 0 1333 c0 734 -3 1336 -7 1338 -5 2 -149 -82 -320 -186z"/>
</g>
</svg>
