<?xml version="1.0" standalone="no"?>
<!DOCTYPE svg PUBLIC "-//W3C//DTD SVG 20010904//EN"
 "http://www.w3.org/TR/2001/REC-SVG-20010904/DTD/svg10.dtd">
<svg version="1.0" xmlns="http://www.w3.org/2000/svg"
 width="300.000000pt" height="300.000000pt" viewBox="0 0 300.000000 300.000000"
 preserveAspectRatio="xMidYMid meet">

<g transform="translate(0.000000,300.000000) scale(0.100000,-0.100000)"
fill="#000000" stroke="none">
<path d="M2191 2285 c-1 -16 -12 -223 -25 -460 -29 -498 -38 -704 -31 -690 2
6 16 226 29 490 32 600 35 637 50 628 8 -5 8 -3 0 8 -7 8 -14 23 -17 34 -3 14
-5 11 -6 -10z"/>
<path d="M2165 2228 c-14 -65 -88 -285 -137 -408 -65 -166 -188 -415 -283
-573 -69 -116 -96 -149 -111 -135 -4 5 38 736 51 888 3 35 3 61 -1 58 -3 -4
-19 -215 -35 -470 -27 -435 -33 -498 -44 -486 -3 2 9 200 25 439 17 239 30
448 29 464 0 17 -76 -188 -168 -455 -93 -267 -167 -487 -165 -489 2 -2 60 2
129 9 69 7 128 10 132 6 4 -3 -3 -19 -14 -34 -16 -21 -31 -28 -74 -34 -31 -4
-55 -3 -57 3 -6 15 -59 10 -66 -6 -3 -8 -17 -15 -31 -15 -30 0 -33 -22 -10
-77 24 -57 20 -73 -17 -73 -55 0 -60 8 -49 81 16 95 15 99 -18 99 -29 0 -29
-1 -41 -82 -7 -46 -11 -92 -9 -103 5 -26 45 -45 97 -45 23 0 42 -4 42 -10 0
-18 -39 -30 -99 -30 -54 0 -61 -2 -61 -20 0 -18 7 -20 84 -20 67 0 88 4 107
19 22 18 26 18 53 4 35 -18 105 -13 156 11 36 17 31 16 -57 -6 -33 -9 -52 -8
-83 2 -41 14 -44 19 -34 57 7 25 24 31 24 9 0 -28 77 -24 138 6 32 15 71 31
89 34 29 6 32 4 35 -22 3 -26 8 -29 41 -32 l37 -3 -6 40 c-8 51 12 56 38 11
23 -40 57 -51 142 -48 71 3 71 3 74 33 4 39 15 49 41 40 18 -6 21 -12 15 -41
-6 -33 -5 -34 25 -34 27 0 32 4 38 31 5 27 9 30 37 27 25 -2 32 -8 34 -30 3
-23 8 -28 31 -28 31 0 39 15 46 82 8 87 14 98 51 98 40 0 39 0 22 -112 l-11
-76 -46 -21 c-25 -12 -73 -26 -106 -31 l-60 -9 65 4 c48 4 81 13 125 37 52 27
70 32 135 32 l74 1 18 105 c10 58 16 110 13 117 -13 36 143 117 272 140 194
35 82 26 -320 -24 -232 -28 -430 -52 -439 -52 -10 -1 -18 6 -18 14 0 10 -10
15 -30 15 -23 0 -30 -4 -30 -20 0 -11 -1 -20 -2 -20 -2 0 -57 -7 -123 -15
-170 -21 -171 -21 -179 17 -3 17 -4 34 -1 36 3 3 95 11 205 17 110 6 201 13
203 16 3 2 12 128 22 279 9 151 25 401 35 555 10 154 17 281 15 283 -2 2 -6
-12 -10 -30z m415 -1148 c0 -28 -3 -30 -35 -30 -24 0 -35 5 -35 14 0 32 13 46
41 46 26 0 29 -4 29 -30z m-921 -137 c1 -20 -4 -23 -39 -23 -23 0 -40 5 -40
11 0 6 12 34 27 62 l28 50 12 -39 c6 -21 12 -49 12 -61z m315 -10 c-9 -53 -9
-53 -65 -53 -46 0 -49 2 -49 25 0 38 33 65 80 65 l41 0 -7 -37z m255 -10 c-13
-69 -14 -70 -48 -65 -33 5 -37 18 -25 81 6 28 10 31 44 31 l37 0 -8 -47z m257
-20 c-16 -91 -17 -93 -42 -93 -37 0 -33 51 9 95 17 18 34 34 36 34 2 1 0 -16
-3 -36z m-694 2 c-5 -28 -36 -34 -46 -9 -9 22 1 34 28 34 19 0 22 -4 18 -25z
m285 17 c17 -11 4 -55 -14 -48 -8 3 -19 6 -24 6 -10 0 -12 33 -2 43 8 9 25 9
40 -1z m-427 -64 c-14 -6 -53 -24 -87 -39 -35 -15 -63 -26 -63 -23 0 8 34 59
45 66 5 4 37 7 70 7 52 0 57 -2 35 -11z m310 -3 c0 -20 -59 -20 -86 0 -17 13
-15 14 34 15 40 0 52 -4 52 -15z"/>
<path d="M1732 2199 c-35 -13 -26 -28 13 -22 28 4 41 1 59 -16 l23 -21 27 21
c20 16 36 20 62 16 19 -3 34 -2 34 3 0 27 -66 30 -103 5 -15 -9 -28 -12 -31
-7 -10 17 -60 30 -84 21z"/>
<path d="M2275 2145 c41 -115 87 -437 72 -497 -10 -37 68 -164 132 -214 66
-52 184 -115 261 -140 30 -9 64 -24 75 -33 16 -13 17 -13 9 -1 -6 8 -127 206
-269 440 -142 234 -265 434 -273 445 l-14 20 7 -20z"/>
<path d="M1813 2070 c-13 -5 -23 -14 -23 -20 0 -7 8 -9 23 -4 33 11 57 7 78
-12 18 -16 20 -16 39 1 19 17 58 23 86 14 7 -2 14 0 15 5 2 5 -9 14 -25 19
-21 7 -37 5 -62 -6 -29 -14 -36 -15 -61 -2 -32 17 -39 17 -70 5z"/>
<path d="M2220 1782 c33 -107 50 -259 50 -454 l0 -184 146 17 c80 10 149 19
153 21 6 2 -346 639 -362 655 -3 3 3 -22 13 -55z"/>
<path d="M806 1083 c-7 -35 -46 -275 -46 -285 0 -5 15 -8 34 -8 37 0 37 -1 52
140 10 102 19 99 38 -12 10 -56 20 -108 23 -115 3 -7 20 -13 39 -13 33 0 35 2
93 118 33 64 60 114 60 111 1 -3 -8 -54 -19 -114 -11 -60 -20 -110 -20 -112 0
-2 15 -3 34 -3 l33 0 22 143 c12 78 25 150 27 160 5 16 0 18 -46 15 l-52 -3
-62 -118 -63 -117 -12 72 c-7 40 -17 94 -23 121 l-10 47 -48 0 c-45 0 -49 -2
-54 -27z"/>
<path d="M306 943 c-9 -60 -19 -118 -22 -131 -4 -21 -1 -23 23 -20 27 3 29 7
38 73 l10 70 35 0 c39 0 40 -5 27 -97 -6 -46 -5 -48 17 -48 29 0 33 11 42 95
8 80 -2 95 -62 95 -44 0 -44 0 -44 35 0 30 -3 35 -24 35 -22 0 -24 -6 -40
-107z"/>
<path d="M2612 934 c-7 -47 -15 -99 -19 -115 -5 -27 -3 -29 25 -29 35 0 35 1
52 108 l12 73 41 -3 c47 -3 48 -7 33 -120 l-8 -58 30 0 c29 0 30 2 41 63 17
98 15 144 -8 157 -11 5 -57 10 -103 10 l-84 0 -12 -86z"/>
<path d="M80 973 c0 -11 -29 -192 -36 -226 -6 -27 -4 -28 23 -25 24 2 28 8 31
36 3 30 6 32 42 32 72 0 112 32 125 101 5 27 2 41 -15 62 -20 25 -27 27 -96
27 -41 0 -74 -3 -74 -7z m128 -70 c4 -41 -26 -73 -68 -73 -30 0 -31 1 -25 38
13 72 14 73 53 70 33 -3 37 -6 40 -35z"/>
<path d="M535 958 c-6 -30 -35 -215 -35 -228 0 -5 11 -10 24 -10 19 0 25 7 30
34 6 32 9 34 58 38 67 7 108 47 108 108 0 62 -24 80 -110 80 -64 0 -70 -2 -75
-22z m128 -39 c19 -30 -10 -77 -50 -85 -18 -4 -36 -4 -39 -1 -3 2 -2 28 2 56
l7 52 35 -3 c19 -2 40 -10 45 -19z"/>
<path d="M1640 734 c-46 -22 -100 -39 -140 -44 l-65 -9 65 3 c50 3 83 13 143
41 67 32 85 37 128 33 30 -3 45 -2 37 3 -29 19 -94 9 -168 -27z"/>
</g>
</svg>
